<?xml version="1.0" standalone="no"?>
<!DOCTYPE svg PUBLIC "-//W3C//DTD SVG 20010904//EN"
 "http://www.w3.org/TR/2001/REC-SVG-20010904/DTD/svg10.dtd">
<svg version="1.0" xmlns="http://www.w3.org/2000/svg"
 width="256.000000pt" height="256.000000pt" viewBox="0 0 256.000000 256.000000"
 preserveAspectRatio="xMidYMid meet">
<metadata>
Created by potrace 1.14, written by Peter Selinger 2001-2017
</metadata>
<g transform="translate(0.000000,256.000000) scale(0.100000,-0.100000)"
fill="#000000" stroke="none">
<path d="M547 1670 c-21 -6 -50 -16 -66 -24 -40 -21 -97 -88 -111 -131 -17
-52 -6 -130 25 -177 31 -47 71 -72 203 -128 144 -61 175 -108 113 -171 -26
-26 -36 -29 -91 -29 -66 0 -115 17 -168 57 l-35 26 -33 -39 c-59 -68 -59 -70
-13 -103 66 -49 144 -74 229 -75 102 -1 161 17 221 71 65 59 88 128 69 211
-19 86 -58 121 -203 182 -140 59 -167 79 -167 126 0 50 37 74 113 74 48 0 71
-6 112 -29 l52 -29 38 50 38 50 -29 24 c-67 55 -210 85 -297 64z"/>
<path d="M970 1595 l0 -65 110 0 110 0 0 -320 0 -320 75 0 75 0 0 320 0 320
110 0 110 0 0 65 0 65 -295 0 -295 0 0 -65z"/>
<path d="M1630 1655 c0 -3 44 -85 97 -182 53 -97 96 -182 96 -187 -1 -9 -73
-145 -184 -343 l-29 -53 83 0 84 0 62 130 c33 72 61 134 61 139 0 6 4 13 10
16 5 3 42 -60 82 -140 l73 -145 83 0 c73 0 83 2 78 16 -3 9 -51 96 -106 195
l-100 179 100 188 100 187 -77 3 c-42 2 -80 -1 -84 -5 -6 -7 -82 -171 -115
-252 -9 -22 -17 -12 -79 117 l-68 142 -84 0 c-46 0 -83 -2 -83 -5z"/>
</g>
</svg>
